<?xml version="1.0" standalone="no"?>
<!DOCTYPE svg PUBLIC "-//W3C//DTD SVG 20010904//EN"
 "http://www.w3.org/TR/2001/REC-SVG-20010904/DTD/svg10.dtd">
<svg version="1.0" xmlns="http://www.w3.org/2000/svg"
 width="999.000000pt" height="939.000000pt" viewBox="0 0 999.000000 939.000000"
 preserveAspectRatio="xMidYMid meet">

<g transform="translate(0.000000,939.000000) scale(0.100000,-0.100000)"
fill="#000000" stroke="none">
<path d="M2685 8225 c-34 -28 -73 -32 -89 -10 -10 14 -15 14 -48 1 -20 -9 -39
-25 -43 -36 -3 -10 -24 -29 -46 -42 -21 -12 -39 -25 -39 -29 0 -4 -16 -16 -35
-28 -44 -26 -49 -61 -8 -58 15 1 28 -2 29 -8 0 -5 4 -17 8 -27 12 -26 2 -80
-16 -92 -13 -8 -21 -6 -36 7 -18 17 -20 17 -26 1 -5 -13 -14 -15 -47 -10 -32
5 -46 2 -66 -14 -14 -11 -39 -20 -56 -20 -16 0 -46 -5 -67 -11 -30 -9 -43 -8
-70 6 -31 16 -34 16 -59 -3 -14 -10 -26 -27 -26 -37 0 -25 -71 -64 -117 -65
-35 0 -38 -3 -38 -27 0 -16 -10 -35 -24 -48 -18 -15 -25 -33 -29 -77 l-5 -57
26 5 c15 2 32 1 37 -3 13 -10 35 -81 35 -113 0 -17 4 -20 18 -14 9 4 30 8 47
8 37 1 45 -26 17 -57 -30 -34 -47 -126 -25 -134 6 -2 19 10 28 26 8 17 21 31
27 31 6 0 21 9 33 20 31 29 79 14 83 -27 2 -18 -3 -35 -12 -43 -10 -8 -16 -29
-16 -57 0 -30 -5 -45 -15 -49 -17 -7 -21 -34 -5 -34 6 0 24 7 40 15 32 17 60
11 60 -12 0 -27 -41 -83 -65 -89 -30 -8 -42 -34 -15 -34 11 0 20 5 20 10 0 6
11 10 24 10 13 0 30 10 38 22 17 25 38 17 38 -15 0 -15 -18 -37 -55 -66 -34
-27 -58 -56 -65 -77 -6 -19 -18 -37 -26 -42 -19 -10 -23 -187 -5 -220 12 -22
32 -119 51 -249 6 -34 21 -101 36 -150 36 -126 43 -179 34 -258 -9 -70 -14
-91 -65 -300 -15 -60 -30 -126 -35 -145 -17 -76 -40 -153 -53 -179 -9 -18 -12
-48 -9 -83 3 -42 -1 -67 -17 -103 -11 -26 -21 -52 -21 -57 0 -5 -18 -46 -39
-91 -21 -45 -46 -104 -55 -130 -9 -26 -25 -66 -36 -88 -23 -45 -153 -185 -178
-193 -14 -5 -16 -17 -14 -71 3 -53 0 -71 -19 -101 -24 -40 -48 -137 -49 -199
0 -22 -7 -53 -15 -69 -24 -46 -20 -75 13 -81 67 -14 104 -30 137 -60 35 -32
38 -44 39 -125 l1 -35 49 3 c28 2 58 8 67 13 37 19 78 10 119 -27 42 -38 49
-59 54 -154 3 -56 -23 -180 -47 -230 -12 -24 -12 -29 5 -50 17 -21 18 -40 15
-234 -2 -195 -4 -214 -25 -253 -12 -23 -22 -58 -22 -76 0 -19 -9 -46 -20 -60
-11 -14 -20 -36 -20 -50 0 -13 -9 -32 -20 -42 -11 -10 -20 -21 -20 -25 0 -10
159 29 194 47 24 13 39 14 95 4 94 -16 136 -21 221 -28 57 -4 91 -14 140 -39
36 -18 77 -35 91 -39 33 -8 120 34 203 99 55 43 85 58 71 36 -4 -6 7 -10 25
-10 17 0 29 4 26 9 -3 5 10 11 28 14 19 3 59 17 89 31 54 26 56 26 99 11 23
-9 80 -29 125 -44 98 -32 224 -114 269 -174 40 -53 58 -109 50 -156 -6 -40 14
-81 39 -81 19 0 75 -49 75 -66 0 -8 -5 -23 -12 -34 -10 -16 -7 -29 20 -79 18
-33 49 -83 70 -111 33 -45 41 -50 75 -50 33 0 46 -7 83 -45 24 -25 48 -45 54
-45 6 0 30 -9 52 -20 48 -23 58 -24 93 -8 18 8 25 19 25 40 0 42 17 68 45 68
18 0 30 11 50 48 14 26 55 74 91 106 56 50 77 62 137 78 42 11 89 17 112 14
57 -7 70 2 187 121 l57 58 98 7 c195 15 288 17 314 7 17 -7 34 -7 53 1 23 8
40 6 87 -11 l58 -21 36 21 c32 19 51 21 174 21 111 0 141 -3 151 -15 7 -8 21
-15 31 -15 10 0 30 -5 44 -12 34 -15 63 1 92 51 25 43 78 74 103 61 9 -5 35
-6 57 -3 39 5 44 3 85 -41 l44 -46 23 21 c13 12 38 45 57 75 19 29 43 59 55
67 11 8 24 30 29 49 5 18 13 47 19 63 5 17 16 50 23 75 17 62 101 158 167 194
30 16 56 36 58 45 6 24 91 78 134 85 20 4 49 2 64 -4 22 -8 31 -7 46 6 15 13
26 14 66 6 40 -9 57 -7 103 8 30 11 48 19 38 20 -9 0 -28 14 -42 31 -30 36
-28 59 10 100 13 14 24 34 24 44 0 11 15 44 34 75 26 42 36 71 41 123 8 70 26
97 67 97 15 0 18 9 18 50 0 46 3 52 31 69 17 11 39 32 49 49 20 33 74 76 105
85 57 16 100 36 103 48 8 26 45 59 66 59 12 0 41 17 65 38 38 33 42 41 33 58
-11 21 -42 39 -82 48 -43 9 -99 65 -145 144 -36 61 -45 86 -45 123 0 32 -10
66 -30 107 -39 79 -41 159 -6 235 13 29 31 59 40 66 9 7 16 20 16 28 0 27 32
87 73 136 21 27 54 79 73 118 19 38 40 69 48 69 8 0 20 16 26 35 6 20 37 62
68 94 51 52 80 98 170 261 35 64 52 79 102 88 54 10 105 33 103 47 0 6 -19 19
-42 30 -56 27 -54 51 12 128 113 131 169 172 230 168 16 -1 39 7 53 18 13 10
41 22 61 26 21 4 58 15 83 25 25 10 79 26 120 35 41 9 106 28 143 41 38 13 84
24 104 24 26 0 42 8 64 31 16 17 29 36 29 43 0 21 57 81 96 101 21 11 61 34
89 50 27 17 66 37 85 46 19 9 49 22 65 30 17 8 48 26 69 41 21 16 46 28 53 28
23 0 191 150 197 175 3 13 4 29 1 37 -3 7 -7 27 -9 45 -2 17 -15 46 -29 62
-36 43 -40 62 -22 104 16 38 20 40 67 37 18 -1 30 5 38 19 12 23 11 24 -42 35
-19 4 -28 14 -33 36 -5 21 -14 32 -33 37 -14 3 -37 12 -50 19 -28 14 -89 8
-113 -12 -8 -8 -23 -14 -32 -14 -28 0 -62 -20 -72 -43 -9 -19 -19 -22 -74 -25
-55 -3 -67 0 -90 21 -59 53 -138 63 -180 23 -44 -41 -94 -39 -120 5 -33 54
-146 102 -165 70 -8 -12 -99 -41 -129 -41 -18 0 -28 8 -37 29 -6 17 -9 34 -6
40 10 15 -21 131 -40 152 -13 14 -31 19 -70 19 -45 0 -58 4 -83 29 -22 22 -43
31 -83 36 -49 6 -67 12 -141 46 -38 17 -50 0 -42 -62 4 -31 1 -50 -7 -57 -8
-5 -57 -9 -116 -7 -56 1 -105 -2 -108 -6 -9 -15 -37 -10 -60 12 -23 21 -24 21
-91 5 -82 -20 -107 -14 -147 38 -15 20 -34 36 -43 36 -9 0 -25 8 -35 17 -17
15 -23 15 -51 4 -18 -8 -58 -15 -91 -17 -58 -3 -59 -3 -117 49 -32 29 -59 59
-59 67 0 12 -14 15 -63 16 -44 0 -71 6 -92 20 -30 19 -65 34 -145 60 -35 11
-50 12 -67 3 -29 -16 -69 -4 -89 26 -15 22 -14 26 10 68 35 59 34 94 -1 103
-14 4 -42 1 -61 -6 -34 -12 -36 -11 -55 14 -11 15 -28 26 -42 26 -14 0 -33 11
-45 27 -19 24 -24 26 -42 14 -52 -32 -144 -52 -237 -52 -95 1 -98 2 -191 55
-68 40 -161 64 -218 59 -45 -5 -57 -11 -81 -40 l-29 -35 -56 12 c-30 6 -58 16
-62 21 -9 16 -75 39 -110 39 -22 0 -37 6 -43 19 -6 10 -22 26 -37 36 -24 16
-32 16 -63 5 -20 -7 -51 -24 -68 -38 -35 -26 -62 -24 -70 6 -4 17 -9 17 -81
-6 -42 -14 -92 -31 -110 -38 -38 -16 -286 -19 -342 -4 -19 5 -53 14 -75 20
-22 7 -73 16 -113 21 -40 5 -82 14 -92 19 -10 6 -32 10 -48 10 -16 0 -40 9
-53 19 -27 21 -186 45 -235 35 -24 -5 -37 2 -79 40 -27 25 -51 46 -52 46 -1 0
-19 -14 -39 -32 -36 -31 -39 -32 -148 -36 -149 -5 -378 -7 -446 -4 -30 1 -89
-1 -131 -4 -97 -8 -139 5 -180 57 -45 57 -102 91 -137 82 -36 -10 -54 -5 -70
18 -17 25 -31 24 -67 -6z"/>
<path d="M9600 5010 c-14 -4 -53 -16 -88 -26 -35 -9 -66 -23 -70 -29 -4 -6
-28 -22 -54 -35 -26 -13 -61 -40 -78 -62 -17 -21 -44 -45 -60 -53 -50 -26
-130 -89 -130 -103 0 -7 15 -19 34 -27 18 -8 36 -21 39 -30 9 -22 32 -18 50 8
9 13 29 30 47 37 28 12 33 11 55 -10 18 -17 25 -34 25 -60 0 -58 22 -80 80
-80 27 0 54 -6 59 -12 6 -7 21 -26 35 -43 l24 -29 56 43 c32 23 59 50 62 59
11 36 56 120 94 172 44 62 48 85 21 118 -22 25 -53 29 -71 7 -16 -19 -50 -19
-78 1 -23 16 -29 48 -12 59 6 3 10 15 10 27 0 15 -5 19 -20 15 -28 -7 -25 9 6
38 23 22 24 25 8 24 -10 0 -30 -4 -44 -9z"/>
<path d="M8513 4284 c-29 -13 -53 -30 -53 -38 0 -8 -12 -28 -26 -45 -32 -38
-28 -63 11 -72 17 -4 38 -10 48 -14 12 -5 17 -3 17 8 0 9 12 25 28 36 75 57
106 107 82 136 -17 21 -46 18 -107 -11z"/>
<path d="M8504 3985 c-10 -24 6 -37 37 -30 18 4 36 2 45 -6 11 -9 18 -9 26 -1
7 7 10 13 7 14 -62 39 -106 47 -115 23z"/>
<path d="M3132 2343 c-12 -24 -4 -43 18 -43 25 0 33 15 20 40 -13 25 -26 26
-38 3z"/>
<path d="M3130 2241 c-5 -11 -10 -37 -10 -59 0 -34 -3 -40 -22 -40 -35 0 -110
-38 -141 -70 -36 -37 -65 -135 -47 -157 20 -25 83 -19 110 10 13 14 30 25 37
25 24 0 107 42 125 63 10 11 20 36 24 56 3 20 10 48 16 63 13 34 6 55 -31 96
-34 37 -46 40 -61 13z"/>
<path d="M324 1918 c-52 -41 -51 -46 10 -183 13 -27 28 -63 35 -78 7 -19 17
-27 29 -25 21 4 74 97 68 120 -2 10 0 36 5 59 14 60 -10 98 -74 114 -43 11
-50 10 -73 -7z"/>
<path d="M2838 1853 c-21 -10 -28 -22 -28 -43 0 -15 -7 -43 -16 -62 -37 -74
-48 -96 -80 -154 -19 -34 -34 -73 -34 -86 0 -48 -54 -90 -132 -103 -49 -8 -56
-22 -26 -51 16 -17 40 -26 75 -30 50 -6 51 -6 100 44 28 29 63 53 79 57 74 15
108 28 129 49 38 38 58 125 59 252 1 102 -1 115 -19 128 -25 19 -71 19 -107
-1z"/>
<path d="M1348 1723 c-17 -7 -54 -35 -84 -62 -48 -44 -60 -50 -111 -55 -32 -4
-75 -6 -96 -6 -22 0 -47 -5 -58 -11 -19 -10 -26 -44 -10 -53 4 -3 18 -32 30
-65 12 -34 32 -73 45 -88 13 -16 29 -41 37 -58 10 -20 21 -29 34 -28 78 10 97
17 126 50 33 38 33 39 76 152 24 65 37 82 96 135 88 79 89 101 3 101 -32 0
-72 -6 -88 -12z"/>
<path d="M711 1454 c-49 -62 -1 -154 79 -154 28 0 43 8 68 33 39 40 40 65 5
99 -61 56 -119 64 -152 22z"/>
<path d="M1743 1419 c-10 -18 -35 -50 -55 -70 -40 -41 -46 -66 -28 -128 12
-41 66 -93 120 -115 39 -15 42 -15 97 11 70 32 93 50 93 74 0 10 7 34 17 53
15 32 15 38 0 78 -10 24 -17 55 -17 68 0 39 -12 48 -60 48 -25 -1 -69 2 -97 7
-52 7 -53 6 -70 -26z"/>
<path d="M288 1190 c-19 -18 -42 -30 -58 -30 -31 0 -55 -23 -47 -45 12 -30
115 -57 142 -37 6 4 21 27 34 50 19 36 21 48 12 68 -14 33 -44 30 -83 -6z"/>
</g>
</svg>
